<svg width="32" height="53" viewBox="0 0 32 53" fill="none" xmlns="http://www.w3.org/2000/svg">
<path fill-rule="evenodd" clip-rule="evenodd" d="M0.671341 0.592926C0.458534 0.780401 0.289698 1.00311 0.174498 1.24831C0.0592976 1.4935 0 1.75636 0 2.02182C0 2.28729 0.0592976 2.55014 0.174498 2.79534C0.289698 3.04053 0.458534 3.26324 0.671341 3.45072L26.4796 26.2404L0.671341 49.03C0.242254 49.409 0.00119781 49.923 0.00119781 50.4589C0.00119781 50.9949 0.242254 51.5089 0.671341 51.8878C1.10043 52.2668 1.68239 52.4797 2.28921 52.4797C2.89603 52.4797 3.478 52.2668 3.90709 51.8878L31.3287 27.6693C31.5415 27.4818 31.7103 27.2591 31.8255 27.0139C31.9407 26.7687 32 26.5058 32 26.2404C32 25.9749 31.9407 25.7121 31.8255 25.4669C31.7103 25.2217 31.5415 24.999 31.3287 24.8115L3.90709 0.592926C3.69482 0.404977 3.44265 0.25586 3.16503 0.154116C2.88741 0.052372 2.58979 0 2.28921 0C1.98864 0 1.69102 0.052372 1.4134 0.154116C1.13578 0.25586 0.88361 0.404977 0.671341 0.592926Z" fill="black"/>
</svg>
