<svg width="32" height="53" viewBox="0 0 32 53" fill="none" xmlns="http://www.w3.org/2000/svg">
<path fill-rule="evenodd" clip-rule="evenodd" d="M31.3287 0.592926C31.5415 0.780401 31.7103 1.00311 31.8255 1.24831C31.9407 1.4935 32 1.75636 32 2.02182C32 2.28729 31.9407 2.55014 31.8255 2.79534C31.7103 3.04053 31.5415 3.26324 31.3287 3.45072L5.52039 26.2404L31.3287 49.03C31.7577 49.409 31.9988 49.923 31.9988 50.4589C31.9988 50.9949 31.7577 51.5089 31.3287 51.8878C30.8996 52.2668 30.3176 52.4797 29.7108 52.4797C29.104 52.4797 28.522 52.2668 28.0929 51.8878L0.671342 27.6693C0.458536 27.4818 0.289696 27.2591 0.174496 27.0139C0.0592963 26.7687 0 26.5058 0 26.2404C0 25.9749 0.0592963 25.7121 0.174496 25.4669C0.289696 25.2217 0.458536 24.999 0.671342 24.8115L28.0929 0.592926C28.3052 0.404977 28.5574 0.25586 28.835 0.154116C29.1126 0.0523721 29.4102 0 29.7108 0C30.0114 0 30.309 0.0523721 30.5866 0.154116C30.8642 0.25586 31.1164 0.404977 31.3287 0.592926Z" fill="black"/>
</svg>
